<?xml version="1.0" encoding="UTF-8"?>
<svg width="118px" height="32px" viewBox="0 0 118 32" version="1.1" xmlns="http://www.w3.org/2000/svg" xmlns:xlink="http://www.w3.org/1999/xlink">
    <title>logo_aurpay</title>
    <defs>
        <linearGradient x1="50%" y1="0%" x2="50%" y2="99.5316939%" id="linearGradient-1">
            <stop stop-color="#FFB901" offset="0%"></stop>
            <stop stop-color="#FF6090" offset="25.6948618%"></stop>
            <stop stop-color="#C163D1" offset="40.2369359%"></stop>
            <stop stop-color="#4498FF" offset="62.6770446%"></stop>
            <stop stop-color="#1FE6FF" offset="100%"></stop>
        </linearGradient>
        <linearGradient x1="50%" y1="0.749153191%" x2="50%" y2="100%" id="linearGradient-2">
            <stop stop-color="#1FE1FF" offset="0%"></stop>
            <stop stop-color="#8994FF" offset="100%"></stop>
        </linearGradient>
    </defs>
    <g id="页面-1" stroke="none" stroke-width="1" fill="none" fill-rule="evenodd">
        <g id="plugins" transform="translate(-204.000000, -300.000000)">
            <g id="logo_aurpay" transform="translate(204.000000, 300.000000)">
                <g id="编组-2" transform="translate(0.000000, 2.000000)">
                    <path d="M35.5529066,6.65345883 L41.8725618,21.9603765 L38.7127342,21.9603765 L37.1300199,17.9424588 L30.6700199,17.9424588 L29.2310232,21.9603765 L25.6220199,21.9603765 L31.9416751,6.6677166 L35.5529066,6.65345883 Z M33.7472909,9.35467959 L31.6200199,15.2904588 L36.3750199,16.0254588 L33.7472909,9.35467959 Z" id="形状结合" fill="#1E1E1E"></path>
                    <path d="M96.9438424,6.65345883 L103.263498,21.9603765 L100.10367,21.9603765 L98.5209557,17.9424588 L92.0609557,17.9424588 L90.621959,21.9603765 L87.0129557,21.9603765 L93.3326109,6.6677166 L96.9438424,6.65345883 Z M95.1382267,9.35467959 L93.0109557,15.2904588 L97.7659557,16.0254588 L95.1382267,9.35467959 Z" id="形状结合" fill="#1E1E1E"></path>
                    <path d="M42.3239657,6.65345883 L45.4837933,6.65345883 C45.4837933,12.7962614 45.4837933,15.9476856 45.4837933,16.1077315 C45.4837933,16.6578553 45.6920232,16.7801892 45.9351972,17.0081384 C46.3710958,17.4167459 47.005687,17.9926981 47.498465,18.3823566 C47.8176236,18.6347276 47.9103271,18.8089523 48.1849674,18.8089523 C48.5539614,18.8089523 50.5638165,18.8089523 50.9333959,18.8089523 C51.1342894,18.8089523 51.2484727,18.63968 51.5746865,18.3823566 C52.0656673,17.9950621 52.7497878,17.419252 53.1576603,17.0081384 C53.5006672,16.6624058 53.6090642,16.5761788 53.6090642,16.1077315 C53.6090642,15.9334336 53.6090642,12.7820094 53.6090642,6.65345883 L56.7688918,6.65345883 C56.7688918,13.6762749 56.7688918,17.2855227 56.7688918,17.4812021 C56.7688918,17.7196772 53.895887,20.4654983 52.7041194,21.510173 C52.4290396,21.7513013 52.2651446,21.9603765 51.8285641,21.9603765 C50.8184138,21.9603765 48.3281595,21.9603765 47.2910939,21.9603765 C46.8396151,21.9603765 46.6946674,21.7819587 46.3866012,21.510173 C45.5173625,20.7433037 43.6283127,19.0833543 42.7753696,18.3587488 C42.4064352,18.0453259 42.3239657,17.6849944 42.3239657,17.4583419 C42.3239657,16.639857 42.3239657,13.0382293 42.3239657,6.65345883 Z" id="路径-15" fill="#1E1E1E"></path>
                    <path d="M69.4082021,6.65345883 C69.6481723,6.65345883 70.068753,6.89370451 70.31101,7.10366229 C70.553267,7.31362008 71.9343036,8.76989803 72.1369415,8.97693625 C72.3395794,9.18397447 72.5680297,9.45377127 72.5680297,9.80488306 L72.5680297,12.5159599 C72.5680297,12.7933476 72.6295556,13.0151193 72.3115561,13.4065107 C72.1239067,13.6374682 71.4664771,14.3739864 70.3392672,15.6160653 C70.6999459,15.9715099 71.0174518,16.2843785 71.291008,16.5563823 L71.5590249,16.8238953 C72.2316947,17.4981725 72.5680297,17.8597225 72.5680297,17.9085453 L72.5680297,17.9085453 L72.5680297,21.9603765 L69.4082021,21.9603765 L69.4082021,21.9603765 L69.4082021,19.7093592 C69.4082021,19.6516741 69.0714746,19.2854958 68.3980195,18.6108243 L68.1296898,18.3433619 C67.5602832,17.778346 66.8006806,17.0390819 65.8508821,16.1255697 L61.7335075,16.1244588 L61.7343351,21.9603765 L58.5745075,21.9603765 L58.5745075,6.65345883 L69.4082021,6.65345883 Z M68.4752701,9.37016358 L61.7335075,9.36945883 L61.7335075,13.8994588 L68.4752701,13.8997589 C68.692363,13.8997589 69.7270734,12.836626 69.8480529,12.5530628 L69.859606,12.5094802 L69.859606,10.7117851 C69.859606,10.5058856 68.7702572,9.37016358 68.4752701,9.37016358 Z" id="形状结合" fill="#1E1E1E"></path>
                    <path d="M85.20734,6.65345883 C85.4473102,6.65345883 85.8678909,6.89370451 86.1101479,7.10366229 C86.3524048,7.31362008 87.7334415,8.76989803 87.9360794,8.97693625 C88.1387173,9.18397447 88.3671676,9.45377127 88.3671676,9.80488306 L88.3671676,12.9661634 C88.3671676,13.243551 88.4286935,13.4653228 88.110694,13.8567142 C87.944802,14.0608929 87.2787624,14.9750029 86.6070755,15.7914329 C86.4766955,15.9499087 86.3431001,16.1250342 86.1101479,16.125139 L77.5326454,16.1244588 L77.533473,21.9603765 L74.3736454,21.9603765 L74.3736454,6.65345883 L85.20734,6.65345883 Z M84.274408,9.37016358 L77.5326454,9.36945883 L77.5326454,13.8994588 L84.274408,13.8997589 C84.4915009,13.8997589 85.5262113,12.836626 85.6471907,12.5530628 L85.6587439,12.5094802 L85.6587439,10.7117851 C85.6587439,10.5058856 84.5693951,9.37016358 84.274408,9.37016358 Z" id="形状结合" fill="#1E1E1E"></path>
                    <polygon id="路径-20" fill="#1E1E1E" points="100.10367 6.65345883 106.423325 16.557935 106.423325 21.9603765 109.131749 21.9603765 109.131749 16.557935 115 6.65345883 109.583153 6.65345883 107.777537 13.8567142 105.520517 6.65345883"></polygon>
                    <path d="M13.7703936,6.45460003 C13.3934385,7.38790126 12.9443669,8.15636655 12.423179,8.75999591 C12.2647673,8.52774382 10.4162265,5.81908526 10.052738,5.46416516 C9.74369741,5.81482613 6.6203532,9.75851559 5.96333234,10.6000607 C5.30631148,11.4416058 3.81373813,13.4245484 3.21133168,15.193226 C2.60892523,16.9619036 2.8689749,18.7142682 3.52894893,20.1249688 C3.96893162,21.0654358 4.56461737,21.8636327 5.31600617,22.5195594 C5.13419433,21.5930427 5.13419433,20.7948458 5.31600617,20.1249688 C5.49781801,19.4550917 5.78773078,18.7490306 6.18574449,18.0067856 C5.84363222,20.0653885 6.08677028,21.7916331 6.91515866,23.1855194 C8.15774123,25.2763489 10.1100386,26.4552873 11.0960573,26.8171199 C10.5934566,26.9788997 8.20806062,27.4160995 5.02585347,25.8782692 C1.84364631,24.3404388 0,20.7991624 0,17.2851198 C0,13.7710773 3.62678779,9.48339596 4.90626614,7.89717578 C6.18574449,6.3109556 8.1635038,3.88485576 8.80612383,2.45277928 C9.44874386,1.02070279 9.64631504,0 10.052738,0 C10.459161,0 10.6611928,1.35186579 11.1748718,2.45277928 C11.5173244,3.1867216 12.3824984,4.52066185 13.7703936,6.45460003 Z" id="路径-32" fill="url(#linearGradient-1)"></path>
                    <path d="M14.8075608,7.70675846 C17.2765067,10.8559315 18.736987,12.9247009 19.1890016,13.9130668 C19.8670236,15.3956157 21.0370416,18.1549933 19.0375648,21.712296 C17.7045802,24.0838311 15.4473223,25.6882683 12.265791,26.5256075 C10.3491083,25.4658669 9.08839192,24.1084557 8.48364201,22.4533738 C7.57651716,19.970751 7.7708259,18.8576179 8.34347543,17.3507138 C8.91612496,15.8438098 10.8179385,13.2384065 11.9798856,11.8426593 C12.754517,10.9121611 13.6970753,9.5335275 14.8075608,7.70675846 Z M14.8890909,12.1311293 C13.6420624,13.8748806 12.8210441,15.0033058 12.4260358,15.5164049 C11.5163383,16.6980636 10.1930135,18.4583805 10.6122613,20.3650594 C10.8917599,21.6361787 11.5640461,22.7528626 12.6291197,23.715111 C13.8538509,23.2243187 14.8198068,22.6219153 15.5269875,21.9079007 C16.5877585,20.8368788 17.6165131,19.2941382 17.5216549,17.6259445 C17.4267966,15.9577507 17.2713735,15.3531283 16.3991805,14.0015876 C15.8177185,13.1005604 15.3143553,12.4770743 14.8890909,12.1311293 Z" id="形状结合" fill="url(#linearGradient-2)"></path>
                </g>
            </g>
        </g>
    </g>
</svg>